# xmcd
#
# Track frame offsets: 
#        150
#        16384
#        38371
#        52399
#        71389
#        90351
#        106257
#        120623
#        138452
#        151749
#        166160
#        180496
#        199166
#
# Disc length: 2858 seconds
#
# Revision: 0
# Processed by: cddbd v1.5.2PL0 Copyright (c) Steve Scherf et al.
# Submitted via: ExactAudioCopy v0.90b4
#
DISCID=9e0b280d
DTITLE=Rich Layton and The Troublemakers - Tough Town
DYEAR=2010
DGENRE=Swampadelic
TTITLE0=The Blues Are Coming Back Home
TTITLE1=Diamond Jim
TTITLE2=Love American Style
TTITLE3=Maria and Ramon
TTITLE4=King's Highway
TTITLE5=The One That Got Away
TTITLE6=Goodbye Cruel World
TTITLE7=Million Dollar Town
TTITLE8=I Feel Fine
TTITLE9=Checkmate
TTITLE10=Tough Town
TTITLE11=Part Time Pay
TTITLE12=Be That Way Sometime
EXTD=
EXTT0=
EXTT1=
EXTT2=
EXTT3=
EXTT4=
EXTT5=
EXTT6=
EXTT7=
EXTT8=
EXTT9=
EXTT10=
EXTT11=
EXTT12=
PLAYORDER=
